<svg xmlns="http://www.w3.org/2000/svg" width="72" height="56" viewBox="0 0 72 56">
    <g fill="none" fill-rule="evenodd">
        <circle cx="37" cy="27" r="24" fill="#20B9F5" fill-opacity=".64"/>
        <path fill="#000" fill-rule="nonzero" d="M30.439 17.176a8.649 8.649 0 00-2.278 2.32.956.956 0 00-.054.971c.16.31.478.513.832.532a1 1 0 00.885-.44 6.693 6.693 0 011.763-1.796.96.96 0 00.23-1.353 1.006 1.006 0 00-1.378-.234z"/>
        <path fill="#000" fill-rule="nonzero" d="M14.718 54.256H8.23V14.298l.002-.042c0-6.899 5.402-12.511 12.041-12.511 6.383 0 11.619 5.188 12.014 11.718-3.926.46-6.884 3.737-6.89 7.632v1.363c0 .482.397.872.886.872h3.94c.39 1.396 1.656 2.427 3.138 2.427s2.747-1.03 3.138-2.427h3.617c.489 0 .885-.39.885-.872v-1.363c-.005-3.914-2.99-7.2-6.939-7.639C33.658 5.966 27.628 0 20.272 0c-7.59 0-13.77 6.353-13.81 14.177-.002.02-.004.04-.004.061v40.017H.885a.879.879 0 00-.885.873c0 .481.396.872.885.872h13.833c.49 0 .886-.39.886-.872a.879.879 0 00-.886-.873zM33.36 24.012a1.472 1.472 0 01-1.222-.682h2.444a1.472 1.472 0 01-1.222.682zm5.87-2.917v.49H27.166v-.49c0-3.282 2.7-5.942 6.031-5.942 3.331 0 6.031 2.66 6.031 5.942z"/>
        <path fill="#000" fill-rule="nonzero" d="M67.883 40.554v-5.857c-.018-2.057-1.672-3.71-3.697-3.697H48.234a3.636 3.636 0 00-2.819 1.324A3.691 3.691 0 0042.583 31H26.54c-2.025-.013-3.68 1.64-3.698 3.697v5.873c-2.162.195-3.825 2.024-3.843 4.228v10.317c0 .489.39.885.872.885h6.758a.878.878 0 00.872-.885v-1.18l35.996.012v1.168c0 .489.39.885.872.885h6.758a.878.878 0 00.872-.885V44.797c-.02-2.31-1.842-4.188-4.117-4.243zm-21.029-7.21a1.917 1.917 0 011.38-.574h15.952c1.063-.015 1.937.847 1.954 1.926v6.17c-1.587.642-2.632 2.197-2.642 3.93v.348l-17.213-.005.002-10.354a2.025 2.025 0 01.567-1.44zm-20.313-.574h16.042c1.063-.015 1.937.847 1.954 1.927l.004 10.442-17.04-.005v-.336c-.01-1.843-1.186-3.47-2.914-4.032v-6.069c.017-1.08.89-1.941 1.954-1.927zm-.783 21.459h-5.015v-9.432c.038-1.379 1.15-2.477 2.508-2.477s2.47 1.098 2.507 2.477v9.432zm1.744-2.064v-5.26l17.91.004h.001l18.085.005v5.262l-35.996-.011zm42.755 2.064h-5.015v-9.432c.036-1.38 1.148-2.48 2.507-2.48 1.36 0 2.472 1.1 2.508 2.48v9.432z"/>
    </g>
</svg>
