<svg xmlns="http://www.w3.org/2000/svg" width="61" height="62" viewBox="0 0 61 62">
    <g fill="none" fill-rule="evenodd">
        <circle cx="30" cy="35" r="21" fill="#20B9F5" fill-opacity=".64"/>
        <path fill="#000" fill-rule="nonzero" d="M56.333 44.9c-.038 0-.075.003-.113.004v-6.952c0-2.179-1.806-3.952-4.025-3.952h-18.52a3.982 3.982 0 00-3.273 1.679A4.044 4.044 0 0027.112 34H8.487c-2.219 0-4.025 1.773-4.025 3.952v6.954C1.984 45.012 0 47.023 0 49.481v11.776c0 .41.333.743.744.743H8.59c.41 0 .743-.332.743-.743v-1.613l42.332.012v1.601c0 .41.333.743.743.743h7.847c.41 0 .744-.333.744-.743V49.481c0-2.525-2.094-4.58-4.667-4.58zm-24.45-8.68a2.512 2.512 0 011.792-.734h18.52c1.4 0 2.537 1.106 2.537 2.467v7.226a4.593 4.593 0 00-3.066 4.302v.664l-20.523-.006.002-12.084a2.557 2.557 0 01.737-1.834zm-23.396-.734h18.626c1.399 0 2.537 1.106 2.537 2.467l.004 12.186-20.32-.006v-.652A4.6 4.6 0 005.95 45.08v-7.126c0-1.36 1.138-2.467 2.537-2.467zm-.64 25.029h-6.36V49.48c0-1.706 1.427-3.094 3.18-3.094 1.754 0 3.18 1.388 3.18 3.094v11.034zm1.487-2.356v-6.54l42.332.012v6.54L9.334 58.16zm50.178 2.356h-6.359V49.48c0-1.706 1.426-3.094 3.18-3.094 1.753 0 3.18 1.388 3.18 3.094v11.034z"/>
        <path fill="#000" fill-rule="nonzero" d="M13.5 47a1.5 1.5 0 100-3 1.5 1.5 0 000 3zm0-2.022a.522.522 0 110 1.044.522.522 0 010-1.044zM21.5 47a1.5 1.5 0 100-3 1.5 1.5 0 000 3zm0-2.022a.522.522 0 110 1.044.522.522 0 010-1.044zM13.5 42a1.5 1.5 0 100-3 1.5 1.5 0 000 3zm0-2.022a.522.522 0 110 1.044.522.522 0 010-1.044zM21.5 42a1.5 1.5 0 100-3 1.5 1.5 0 000 3zm0-2.022a.522.522 0 110 1.044.522.522 0 010-1.044zM38.5 47a1.5 1.5 0 100-3 1.5 1.5 0 000 3zm0-2.022a.522.522 0 110 1.044.522.522 0 010-1.044zM47.5 47a1.5 1.5 0 100-3 1.5 1.5 0 000 3zm0-2.022a.522.522 0 110 1.044.522.522 0 010-1.044zM38.5 42a1.5 1.5 0 100-3 1.5 1.5 0 000 3zm0-2.022a.522.522 0 110 1.044.522.522 0 010-1.044zM47.5 42a1.5 1.5 0 100-3 1.5 1.5 0 000 3zm0-2.022a.522.522 0 110 1.044.522.522 0 010-1.044zM10.463 30h40.793a.742.742 0 00.744-.74V10.171a.742.742 0 00-.744-.74H10.487V.74A.742.742 0 009.743 0 .742.742 0 009 .74v8.942c-3.413.381-5.995 3.249-5.999 6.663v1.194c0 .408.333.74.744.74H7.18a2.847 2.847 0 002.54 2.118v8.863c0 .409.333.74.744.74zm23.865-1.48l-.368-.356 5.21-3.98 5.105 4.336h-9.947zm-2.137 0H18.163l7.271-6.522 6.757 6.522zm18.32 0h-3.944l-6.89-5.851a.747.747 0 00-.936-.024l-5.86 4.478-6.91-6.669a.747.747 0 00-1.016-.018L15.94 28.52h-4.734v-8.463a2.91 2.91 0 001.38-1.778h3.155a.742.742 0 00.744-.74v-1.194a6.687 6.687 0 00-2.8-5.434h36.826v17.61zM4.489 16.345c0-2.885 2.353-5.225 5.255-5.225 2.902 0 5.255 2.34 5.255 5.225v.454H4.488v-.454zm4.293 1.934h2.204a1.263 1.263 0 01-2.204 0z"/>
        <path fill="#000" fill-rule="nonzero" d="M7.848 12.129a6.567 6.567 0 00-1.729 1.76.71.71 0 00.214.994.742.742 0 001.014-.209 5.123 5.123 0 011.35-1.374.709.709 0 00.168-.997.743.743 0 00-1.017-.174zM32.5 22c1.933 0 3.5-1.343 3.5-3s-1.567-3-3.5-3-3.5 1.343-3.5 3c.002 1.656 1.568 2.998 3.5 3zm0-4.615c1.04 0 1.885.723 1.885 1.615s-.844 1.615-1.885 1.615c-1.04 0-1.885-.723-1.885-1.615.002-.892.845-1.614 1.885-1.615z"/>
    </g>
</svg>
