<svg xmlns="http://www.w3.org/2000/svg" width="71" height="42" viewBox="0 0 71 42">
    <g fill="none" fill-rule="evenodd">
        <circle cx="47" cy="21" r="21" fill="#20B9F5" fill-opacity=".64"/>
        <path fill="#000" fill-rule="nonzero" d="M21.314 14.906c3.457.653 7.979 1.028 12.813 1.069v19.272h-3.036a.875.875 0 00-.873.877c0 .484.39.876.873.876h7.818a.875.875 0 00.873-.876.875.875 0 00-.873-.877h-3.036V15.975c4.835-.04 9.356-.416 12.813-1.07C52.994 14.093 55 13.008 55 11.49c0-1.517-2.006-2.602-6.314-3.416C45.022 7.381 40.162 7 35 7c-5.162 0-10.022.381-13.686 1.073C17.006 8.887 15 9.973 15 11.49c0 1.518 2.006 2.603 6.314 3.417zm.842-5.204c3.496-.612 8.058-.95 12.844-.95s9.348.337 12.844.95c3.872.677 5.158 1.475 5.388 1.787-.23.313-1.516 1.11-5.388 1.789-3.497.611-8.058.949-12.844.949s-9.348-.337-12.844-.95c-3.872-.677-5.158-1.475-5.388-1.788.23-.312 1.516-1.11 5.388-1.788z"/>
        <path fill="#000" fill-rule="nonzero" d="M.874 36a.865.865 0 00.875-.855V22.922H21.25v12.223c0 .472.392.855.875.855a.865.865 0 00.874-.855V21.641c.01-1.932-1.58-3.508-3.556-3.523H1.75V3.855A.865.865 0 00.874 3 .865.865 0 000 3.855v31.29c0 .472.391.855.874.855zm20.324-14.788H1.748v-1.384h17.696a1.81 1.81 0 011.754 1.384zM70.126 4a.865.865 0 00-.875.855v14.263H51.556c-1.976.015-3.566 1.59-3.556 3.523v13.504c0 .472.392.855.874.855a.865.865 0 00.875-.855V23.922H69.25v12.223c0 .472.392.855.875.855a.865.865 0 00.874-.855V4.855A.865.865 0 0070.126 4zM49.802 22.212a1.81 1.81 0 011.754-1.384h17.695v1.384h-19.45z"/>
    </g>
</svg>
