<svg xmlns="http://www.w3.org/2000/svg" width="48" height="56" viewBox="0 0 48 56">
    <g fill="none" fill-rule="evenodd">
        <circle cx="24" cy="28" r="24" fill="#20B9F5" fill-opacity=".64"/>
        <path fill="#000" fill-rule="nonzero" d="M44 34.606a3.185 3.185 0 00-2.196-3.03 3.228 3.228 0 001.167-2.486v-3.983a3.201 3.201 0 00-.886-2.226 2.98 2.98 0 00-1.953-.927V3.377C40.132 1.515 38.671 0 36.875 0h-24.75C10.33 0 8.868 1.515 8.868 3.377V21.95a2.995 2.995 0 00-.39.007c-1.572.131-2.802 1.543-2.802 3.215v3.919c0 .867.347 1.698.963 2.304.1.097.206.187.318.27A3.187 3.187 0 005 34.606v.173a3.175 3.175 0 003.102 3.18l.858 17.179.006.064a.886.886 0 00.85.798h2.204a.886.886 0 00.85-.798l.005-.032.86-17.209h21.461l.859 17.177.006.064a.886.886 0 00.85.798h2.203a.886.886 0 00.85-.798l.005-.032.86-17.209h.01c1.745-.001 3.16-1.425 3.161-3.182v-.173zm-32.223-5.58v-2.993H36.87v2.99c0 .908.37 1.777 1.026 2.4H10.752a3.312 3.312 0 001.025-2.398zm28.144-5.715c.45.001.879.188 1.188.517.327.344.508.803.505 1.28v3.982a1.85 1.85 0 01-.55 1.323c-.32.316-.755.486-1.203.47-.901-.032-1.635-.867-1.635-1.86v-3.915c-.007-.069-.084-.9.554-1.436a1.62 1.62 0 011.14-.36zm-3.022 1.356H11.747l-.001-.008a2.465 2.465 0 00-.482-1.516 2.408 2.408 0 00-1.04-.79V3.377c0-1.109.853-2.011 1.901-2.011h24.75c1.048 0 1.9.902 1.9 2.011v18.798c-.24.072-.764.264-1.212.767a2.71 2.71 0 00-.664 1.725zm-26.48.44v3.918c0 .993-.733 1.827-1.635 1.858a1.634 1.634 0 01-1.203-.471 1.825 1.825 0 01-.55-1.323l.002-3.918c0-.967.684-1.781 1.557-1.854.088-.003.966-.021 1.494.687.336.45.341.939.336 1.103zm1.124 29.527h-1.25L9.46 37.961h2.916l-.833 16.673zm27.095 0h-1.25l-.833-16.673h2.916l-.833 16.673zm4.005-19.855a1.812 1.812 0 01-1.804 1.817H8.161a1.812 1.812 0 01-1.804-1.817v-.173A1.812 1.812 0 018.16 32.79h32.678a1.812 1.812 0 011.804 1.816v.173z"/>
    </g>
</svg>
