<svg xmlns="http://www.w3.org/2000/svg" width="58" height="48" viewBox="0 0 58 48">
    <g fill="none" fill-rule="evenodd">
        <circle cx="29" cy="24" r="24" fill="#20B9F5" fill-opacity=".64"/>
        <path fill="#000" fill-rule="nonzero" d="M3.105 38.883c.193 2.117 2.102 3.713 4.441 3.713h.035l1.026 4.67.006.023c.106.418.483.71.914.71h1.919c.43 0 .807-.292.914-.71l1.032-4.692h32.342l1.027 4.67.005.023c.106.418.483.71.914.71h1.919c.43 0 .807-.292.914-.71l1.06-4.82c1.804-.416 3.161-1.82 3.322-3.586l3.089-33.926a4.276 4.276 0 00-1.14-3.296A5.262 5.262 0 0052.946 0c-2.333 0-4.362 1.474-4.908 3.493H9.96C9.414 1.473 7.386 0 5.052 0a5.262 5.262 0 00-3.895 1.662 4.276 4.276 0 00-1.14 3.295l3.088 33.926zm7.962 7.701H9.906l-.877-3.987h2.914l-.876 3.987zm38.153 0h-1.16l-.878-3.987h2.915l-.877 3.987zM47.79 4.908L45.17 21.651c-.204 1.3-1.5 2.28-3.015 2.28H15.845c-1.515 0-2.81-.98-3.014-2.28L10.208 4.908h37.583zM2.201 2.616a3.845 3.845 0 012.851-1.2c1.811 0 3.361 1.177 3.606 2.738l2.775 17.716c.31 1.981 2.208 3.476 4.412 3.476h26.31c2.204 0 4.1-1.494 4.411-3.476l2.776-17.716c.244-1.561 1.794-2.738 3.605-2.738a3.845 3.845 0 012.851 1.2c.561.594.844 1.398.776 2.212l-3.088 33.927c-.124 1.36-1.456 2.426-3.033 2.426H7.546c-1.576 0-2.908-1.065-3.032-2.426L1.425 4.828a2.875 2.875 0 01.776-2.212z"/>
    </g>
</svg>
