<svg xmlns="http://www.w3.org/2000/svg" width="65" height="49" viewBox="0 0 65 49">
    <g fill="none" fill-rule="evenodd">
        <circle cx="21" cy="26" r="20" fill="#20B9F5" fill-opacity=".64"/>
        <path fill="#000" fill-rule="nonzero" d="M55.929 30c.591 0 1.07-.48 1.071-1.072V1.072C57 .48 56.52.001 55.929 0H9.07C8.48 0 8.001.48 8 1.072v27.856c0 .592.48 1.071 1.071 1.072H55.93zM9.607 1.609h45.786V28.39H9.607V1.61zM63.943 32H1.057A1.07 1.07 0 000 33.08v14.84C.002 48.518.477 49 1.062 49h62.876c.585 0 1.06-.482 1.062-1.08V33.08A1.07 1.07 0 0063.943 32zm-.528 7.617H44.5V33.62h18.915v5.997zm-41.33 0V33.62h20.83v5.997h-20.83zm-20.5-5.997H20.5v5.997H1.585V33.62zm0 7.617h30.122v6.143H1.585v-6.143zm61.83 6.143H33.293v-6.143h30.122v6.143z"/>
        <path fill="#000" fill-rule="nonzero" d="M18.097 42h-3.194c-.499 0-.903.448-.903 1s.404 1 .903 1h3.194c.499 0 .903-.448.903-1s-.404-1-.903-1zM45.903 44h3.194c.499 0 .903-.448.903-1s-.404-1-.903-1h-3.194c-.499 0-.903.448-.903 1s.404 1 .903 1z"/>
    </g>
</svg>
