<svg xmlns="http://www.w3.org/2000/svg" width="58" height="68" viewBox="0 0 58 68">
    <g fill="none" fill-rule="evenodd">
        <circle cx="24" cy="31" r="24" fill="#20B9F5" fill-opacity=".64"/>
        <path fill="#000" fill-rule="nonzero" d="M54.461 19.477h-.37a3.554 3.554 0 00-3.54 3.562v8.16a3.502 3.502 0 00-1.912-.567h-.076V3.561A3.554 3.554 0 0045.023 0H22.745a3.554 3.554 0 00-3.539 3.561v27.075a3.5 3.5 0 00-1.755.563v-8.16a3.554 3.554 0 00-3.54-3.561h-.371A3.554 3.554 0 0010 23.038v14.337a3.554 3.554 0 003.539 3.561h4.567c.051 2.083.449 5.908 3.531 5.908H33.48v2.222h-.761a1.026 1.026 0 00-1.017.867l-1.017 6.32a.992.992 0 00.983 1.15h1.811v2.13a6.16 6.16 0 00-3.306 1.894 6.6 6.6 0 00-1.752 3.749 1.519 1.519 0 101.63.04c.245-1.981 1.78-3.512 3.428-4V65.2a1.52 1.52 0 101.628-.012v-4.11c2.282.237 4.06 1.981 4.06 4.092v.024a1.52 1.52 0 101.627 0v-.024c0-3.003-2.506-5.475-5.687-5.725v-2.044h1.95a.994.994 0 00.983-1.149l-.352-2.19h3.523a4.227 4.227 0 003.325-1.621l.468.416a.814.814 0 101.082-1.214l-2.07-1.842a.814.814 0 10-1.082 1.214l.383.34a2.602 2.602 0 01-2.106 1.081h-3.784l-.403-2.504c-.079-.5-.51-.869-1.017-.867h-.9v-2.222H46.13c3.083 0 3.48-3.825 3.532-5.908h4.799A3.554 3.554 0 0058 37.375V23.039a3.554 3.554 0 00-3.539-3.562zM34.303 66.581a.09.09 0 11.107-.088.1.1 0 01-.107.088zm2.013-10.805h-3.905l.818-5.084h2.27l.817 5.084zM22.744 1.626h22.28a1.926 1.926 0 011.912 1.935v27.07H20.832V3.562a1.926 1.926 0 011.912-1.935zM11.627 37.375V23.039a1.926 1.926 0 011.912-1.935h.37a1.926 1.926 0 011.913 1.935v16.27H13.54a1.926 1.926 0 01-1.912-1.934zm35.719 7.06c-.303.548-.667.782-1.215.782H21.637c-.548 0-.911-.234-1.215-.782-.399-.72-.628-1.897-.683-3.5h28.29c-.055 1.604-.284 2.78-.683 3.5zm3.205-5.126H17.449v-5.116a1.926 1.926 0 011.912-1.935H48.638a1.926 1.926 0 011.912 1.935v5.116zm5.822-1.934a1.926 1.926 0 01-1.912 1.934h-2.283V23.04a1.926 1.926 0 011.912-1.935h.371a1.926 1.926 0 011.912 1.935v14.336z"/>
    </g>
</svg>
