<svg version="1.1" xmlns="http://www.w3.org/2000/svg" width="260" height="360" viewBox="0 0 26 36">
<title>logo_2_color_copy</title>
<path fill="#20b9f5" d="M23.398 13.31l-0.473-0.16-3.072-8.258-4.806 2.486 4.018-2.486-1.576-3.688-1.182 0.802 0.867-0.802-0.788-1.203-0.945 0.962v1.924l2.048 1.123-3.151-1.363-0.788 5.372 7.642 4.009-8.824-4.009-6.933 5.853-5.436 11.626 2.285 5.612 10.951 4.891 8.114-3.047 5.121-11.385-3.072-8.258zM15.52 17.399l5.515 14.352-3.466-6.975-14.259 5.612 6.539-3.448-1.497-3.768-7.484 2.004 7.248-2.646 6.854-5.933 7.563-2.806-7.012 3.608z"></path>
</svg>